<svg id="Layer_1" style="enable-background:new 0 0 128 128;" version="1.1" viewBox="0 0 128 128" xml:space="preserve" xmlns="http://www.w3.org/2000/svg" xmlns:xlink="http://www.w3.org/1999/xlink">
	<circle fill="#2196F3" class="st0" cx="64" cy="64" r="64"/>
	<path fill="#FFFFFF" class="st1" d="M100,37H28c-2.2,0-4,1.8-4,4v42c0,2.2,1.8,4,4,4h20v15c0,0.8,0.9,1.3,1.6,0.8L71.9,87H100c2.2,0,4-1.8,4-4V41  C104,38.8,102.2,37,100,37z M48,67c-2.8,0-5-2.2-5-5s2.2-5,5-5s5,2.2,5,5C53,64.8,50.8,67,48,67z M64,67c-2.8,0-5-2.2-5-5s2.2-5,5-5  c2.8,0,5,2.2,5,5C69,64.8,66.8,67,64,67z M80,67c-2.8,0-5-2.2-5-5s2.2-5,5-5s5,2.2,5,5C85,64.8,82.8,67,80,67z"/>
</svg>
